<svg width="120" height="120" viewBox="0 0 120 120" fill="none" xmlns="http://www.w3.org/2000/svg">
<path d="M94.275 34.4391V113.414C94.2717 114.794 93.7211 116.117 92.7439 117.092C91.7667 118.067 90.4428 118.614 89.0625 118.614H18.9375C17.5616 118.607 16.244 118.057 15.2723 117.083C14.3005 116.109 13.7533 114.79 13.75 113.414V17.8016C13.75 16.4224 14.2979 15.0998 15.273 14.1246C16.2482 13.1494 17.5709 12.6016 18.95 12.6016H72.5L94.275 34.4391Z" fill="#C3D8FF"/>
<path d="M31.7496 12.6016L13.7246 30.6266V24.7266L25.8496 12.6016H31.7496Z" fill="#9BB5EB"/>
<path d="M51.6371 12.6016L13.7246 50.5141V37.9016L39.0246 12.6016H51.6371Z" fill="#9BB5EB"/>
<path d="M94.275 96.7383V113.413C94.275 114.792 93.7271 116.115 92.7519 117.09C91.7768 118.065 90.4541 118.613 89.075 118.613H25V96.7383H94.275Z" fill="#9BB5EB"/>
<path d="M80.6875 96.7383L58.8125 118.613H47.6875L69.5625 96.7383H80.6875Z" fill="#829CE1"/>
<path d="M94.275 99.6504V107.225L82.8875 118.613H75.3125L94.275 99.6504Z" fill="#829CE1"/>
<path d="M24.9497 99.9629H94.2747V112.15H24.9497V99.9629Z" fill="#829CE1"/>
<path d="M105.488 23.2262V102.189C105.488 103.569 104.94 104.893 103.965 105.87C102.99 106.847 101.668 107.398 100.288 107.401H30.15C28.7784 107.385 27.4686 106.828 26.5046 105.853C25.5405 104.877 24.9999 103.56 25 102.189V6.58867C24.9984 5.90639 25.1313 5.23048 25.3913 4.59966C25.6513 3.96884 26.0331 3.3955 26.515 2.91247C26.9968 2.42944 27.5693 2.04622 28.1995 1.78474C28.8296 1.52326 29.5052 1.38867 30.1875 1.38867H83.6625L105.488 23.2262Z" fill="#DCF1FF"/>
<path d="M105.487 60.8145V71.9395L70.0249 107.402H58.8999L105.487 60.8145Z" fill="white"/>
<path d="M105.487 88.4258V96.0008L94.0999 107.401H86.5249L105.487 88.4258Z" fill="white"/>
<path d="M42.9747 1.38867L24.9497 19.4137V13.5137L37.0747 1.38867H42.9747Z" fill="white"/>
<path d="M62.8622 1.38867L24.9497 39.3012V26.6887L50.2497 1.38867H62.8622Z" fill="white"/>
<path d="M105.487 23.2262H88.8621C87.483 23.2262 86.1603 22.6783 85.1852 21.7031C84.21 20.7279 83.6621 19.4053 83.6621 18.0262V1.38867L105.487 23.2262Z" fill="#B4C4FF"/>
<path d="M57.3497 17.9141H37.1497C36.3489 17.9141 35.6997 18.5632 35.6997 19.3641V27.0891C35.6997 27.8899 36.3489 28.5391 37.1497 28.5391H57.3497C58.1505 28.5391 58.7997 27.8899 58.7997 27.0891V19.3641C58.7997 18.5632 58.1505 17.9141 57.3497 17.9141Z" fill="#00E187"/>
<path d="M96.4747 40.7016V91.5266C96.478 91.7224 96.4423 91.9169 96.3697 92.0987C96.2971 92.2806 96.1889 92.4461 96.0516 92.5858C95.9143 92.7254 95.7506 92.8363 95.57 92.9119C95.3894 92.9876 95.1955 93.0266 94.9997 93.0266H37.1872C36.9925 93.0282 36.7993 92.9913 36.6189 92.9179C36.4385 92.8445 36.2744 92.7361 36.1361 92.599C35.9978 92.4619 35.8881 92.2987 35.8132 92.1189C35.7383 91.9392 35.6997 91.7463 35.6997 91.5516V40.7016C35.6997 40.3104 35.8551 39.9352 36.1317 39.6586C36.4083 39.382 36.7835 39.2266 37.1747 39.2266H94.9997C95.3909 39.2266 95.7661 39.382 96.0427 39.6586C96.3193 39.9352 96.4747 40.3104 96.4747 40.7016Z" fill="#00E187"/>
<path d="M96.4749 69.8262V80.9512L84.3999 93.0262H73.2749L96.4749 69.8262Z" fill="#64FF87"/>
<path d="M95.3496 82.0762L92.8496 84.5762H81.7246L84.2246 82.0762H95.3496Z" fill="#00E187"/>
<path d="M96.475 70.6133V73.1133H93.1875L95.6875 70.6133H96.475Z" fill="#00E187"/>
<path d="M105.875 23.2262H89.2498C87.8707 23.2262 86.548 22.6783 85.5729 21.7031C84.5977 20.7279 84.0498 19.4053 84.0498 18.0262V1.38867L105.875 23.2262Z" fill="#B4C4FF"/>
<path d="M106.762 22.3509L84.9998 0.500906C83.8248 0.000906445 89.9998 0.138406 30.5248 0.138406C28.8185 0.14502 27.1843 0.82749 25.9801 2.03638C24.7759 3.24528 24.0998 4.88208 24.0998 6.58841V11.3509H19.3248C17.613 11.3509 15.9711 12.0301 14.7595 13.2393C13.5479 14.4486 12.8656 16.0891 12.8623 17.8009V113.413C12.8689 115.126 13.554 116.767 14.7676 117.976C15.9812 119.185 17.6244 119.863 19.3373 119.863H89.4623C91.1719 119.86 92.8106 119.18 94.0195 117.971C95.2284 116.762 95.909 115.123 95.9123 113.413V108.651H100.675C102.388 108.648 104.03 107.966 105.241 106.754C106.452 105.543 107.134 103.901 107.137 102.188C107.137 17.5884 107.337 22.9134 106.762 22.3509ZM85.2998 4.41341L102.862 21.9759H89.2498C88.2022 21.9759 87.1975 21.5597 86.4567 20.819C85.716 20.0782 85.2998 19.0735 85.2998 18.0259V4.41341ZM93.4123 113.413C93.4123 114.461 92.9962 115.466 92.2554 116.206C91.5146 116.947 90.5099 117.363 89.4623 117.363H19.3373C18.2874 117.363 17.2801 116.948 16.5354 116.208C15.7906 115.468 15.3689 114.463 15.3623 113.413V17.8009C15.3689 16.7532 15.7889 15.7504 16.5309 15.0107C17.273 14.271 18.2771 13.8542 19.3248 13.8509H24.0998V102.188C24.0998 103.898 24.7772 105.538 25.9838 106.749C27.1903 107.961 28.8277 108.644 30.5373 108.651H93.4123V113.413ZM100.675 106.151H30.5373C29.4907 106.144 28.4893 105.724 27.7515 104.982C27.0138 104.239 26.5998 103.235 26.5998 102.188V6.58841C26.5982 6.07133 26.6984 5.55899 26.8947 5.08064C27.0911 4.60229 27.3798 4.1673 27.7442 3.80051C28.1087 3.43371 28.5418 3.1423 29.0189 2.94291C29.496 2.74352 30.0077 2.64005 30.5248 2.63841H82.7998V18.0259C82.8031 19.7355 83.4837 21.3742 84.6926 22.5831C85.9015 23.792 87.5402 24.4726 89.2498 24.4759H104.637V102.188C104.634 103.238 104.215 104.244 103.473 104.987C102.731 105.729 101.725 106.148 100.675 106.151Z" fill="#302D3D"/>
<path d="M37.4998 29.7891H57.7623C58.4751 29.7891 59.1586 29.5059 59.6627 29.0019C60.1667 28.4979 60.4498 27.8143 60.4498 27.1016V19.3641C60.4498 18.6501 60.1671 17.9653 59.6634 17.4593C59.1598 16.9533 58.4762 16.6674 57.7623 16.6641H37.4998C36.7837 16.6641 36.097 16.9485 35.5906 17.4549C35.0843 17.9612 34.7998 18.648 34.7998 19.3641V27.1016C34.8031 27.8155 35.089 28.499 35.595 29.0027C36.101 29.5063 36.7859 29.7891 37.4998 29.7891ZM37.2998 19.3641C37.2998 19.0641 36.3248 19.1641 57.7123 19.1641C57.7631 19.1672 57.8109 19.1897 57.8457 19.2269C57.8806 19.2641 57.8999 19.3131 57.8998 19.3641V27.1016C57.8998 27.4016 58.8748 27.2891 37.4998 27.2891C37.4489 27.2892 37.3998 27.2698 37.3626 27.235C37.3255 27.2001 37.303 27.1524 37.2998 27.1016V19.3641Z" fill="#302D3D"/>
<path d="M95.3871 37.9766H37.5746C36.8529 37.9799 36.1617 38.268 35.6514 38.7783C35.1411 39.2887 34.8529 39.9799 34.8496 40.7016V91.5516C34.8529 92.2733 35.1411 92.9645 35.6514 93.4748C36.1617 93.9851 36.8529 94.2733 37.5746 94.2766H95.3871C95.7471 94.2766 96.1035 94.2053 96.4357 94.0668C96.768 93.9283 97.0695 93.7253 97.3229 93.4696C97.5762 93.2139 97.7764 92.9106 97.9119 92.5771C98.0474 92.2436 98.1154 91.8865 98.1121 91.5266V40.7016C98.1121 40.3437 98.0416 39.9894 97.9047 39.6588C97.7677 39.3281 97.567 39.0277 97.314 38.7747C97.0609 38.5217 96.7605 38.3209 96.4299 38.184C96.0993 38.047 95.745 37.9766 95.3871 37.9766ZM49.1371 61.6391H95.6371V70.6141H49.1121L49.1371 61.6391ZM46.6371 70.6141H37.3496V61.6391H46.6121L46.6371 70.6141ZM95.6371 59.1391H49.1121V50.1766H95.6121L95.6371 59.1391ZM46.6371 59.1391H37.3496V50.1766H46.6121L46.6371 59.1391ZM37.3496 73.1141H46.6121V82.0766H37.3496V73.1141ZM49.1121 73.1141H95.6121V82.0766H49.1121V73.1141ZM95.6121 40.7016V47.6766H49.1121V40.4766C98.3746 40.4766 95.6121 40.3516 95.6121 40.7016ZM37.5746 40.4766H46.6121V47.6766H37.3496V40.7016C37.3496 40.6419 37.3733 40.5847 37.4155 40.5425C37.4577 40.5003 37.5149 40.4766 37.5746 40.4766ZM37.3496 91.5516V84.5766H46.6121V91.7766H37.5746C37.5149 91.7766 37.4577 91.7529 37.4155 91.7107C37.3733 91.6685 37.3496 91.6112 37.3496 91.5516ZM95.5496 91.7141C95.4246 91.8391 97.3996 91.7141 49.1121 91.7141V84.5766H95.6121C95.6121 91.8766 95.6746 91.5891 95.5496 91.7141Z" fill="#302D3D"/>
</svg>
