<svg width="14" height="12" viewBox="0 0 14 12" fill="none" xmlns="http://www.w3.org/2000/svg">
<path d="M12.845 2.47334C12.8448 3.00013 12.6672 3.51299 12.3384 3.93657C12.0095 4.36016 11.5467 4.67214 11.018 4.82671C11.1391 4.45085 11.2004 4.05985 11.2 3.66669C11.2 2.97417 11.011 2.29355 10.6514 1.69163C10.2918 1.08971 9.77406 0.587196 9.14897 0.233409C9.49552 0.0801924 9.8729 0.000550889 10.255 0C10.9427 0.00114287 11.6019 0.262305 12.0875 0.72609C12.5732 1.18987 12.8456 1.81833 12.845 2.47334ZM12.32 5.53343C12.0259 5.45497 11.7112 5.49094 11.445 5.63343C11.1456 5.79149 10.8135 5.88479 10.472 5.90669C10.3306 6.1119 10.1663 6.30193 9.98198 6.47344C10.6433 6.68069 11.232 7.05709 11.6839 7.5615C12.1357 8.06591 12.4332 8.67891 12.544 9.3335H13.027C13.1821 9.33556 13.3349 9.29762 13.4692 9.22369C13.6036 9.14976 13.7144 9.0426 13.79 8.91356C13.929 8.66529 14.0011 8.38808 14 8.10674V7.63339C14 6.64004 13.307 5.78 12.32 5.53343ZM4.851 0.233409C4.50445 0.0801924 4.12707 0.000550889 3.74499 0C3.1248 0.000410032 2.52532 0.212621 2.05541 0.598101C1.5855 0.983582 1.27631 1.51677 1.18398 2.10086C1.09166 2.68494 1.22231 3.2812 1.55223 3.78136C1.88215 4.28151 2.38946 4.65241 2.98204 4.82671C2.86094 4.45085 2.79958 4.05985 2.79999 3.66669C2.79996 2.97417 2.98901 2.29355 3.34859 1.69163C3.70816 1.08971 4.22591 0.587196 4.851 0.233409ZM4.01799 6.47338C3.83365 6.30186 3.66935 6.11184 3.52797 5.90662C3.18651 5.88472 2.85432 5.79143 2.55502 5.63337C2.2888 5.49087 1.97406 5.4549 1.68001 5.53337C0.692978 5.77993 1.29175e-05 6.63998 1.29175e-05 7.63339V8.10668C-0.00111037 8.38802 0.0710431 8.66523 0.210012 8.9135C0.284781 9.04174 0.394454 9.14842 0.527496 9.22232C0.660538 9.29622 0.812032 9.3346 0.966043 9.33344H1.456C1.56673 8.67885 1.86427 8.06584 2.31611 7.56143C2.76795 7.05703 3.3567 6.68063 4.01799 6.47338ZM9.506 7.38011C9.38461 7.35105 9.26011 7.33538 9.13496 7.33342C8.89222 7.33391 8.65365 7.39358 8.44199 7.50676C8.00033 7.73856 7.50426 7.86011 6.99998 7.86011C6.49571 7.86011 5.99963 7.73856 5.55798 7.50676C5.34632 7.39358 5.10775 7.33391 4.86501 7.33342C4.73986 7.33538 4.61536 7.35105 4.49397 7.38011C3.90569 7.53203 3.38649 7.86461 3.01692 8.32624C2.64735 8.78787 2.44807 9.35275 2.44998 9.93326V10.5133C2.45022 10.8532 2.53923 11.1877 2.70901 11.4867C2.88399 11.8066 3.234 12 3.62598 12H10.374C10.766 12 11.116 11.8066 11.291 11.4867C11.4607 11.1877 11.5498 10.8532 11.55 10.5133V9.93338C11.5519 9.35286 11.3527 8.78794 10.9831 8.32629C10.6135 7.86463 10.0943 7.53204 9.506 7.38011ZM10.15 3.66669C10.15 3.07334 9.96523 2.49332 9.61911 1.99997C9.27298 1.50661 8.78102 1.12209 8.20543 0.895027C7.62985 0.667962 6.99649 0.608551 6.38545 0.724308C5.77441 0.840065 5.21314 1.12579 4.7726 1.54535C4.33207 1.96491 4.03206 2.49947 3.91052 3.08142C3.78898 3.66337 3.85136 4.26657 4.08977 4.81476C4.32819 5.36294 4.73193 5.83148 5.24994 6.16113C5.76795 6.49078 6.37697 6.66673 6.99998 6.66673C7.83541 6.66673 8.63663 6.35065 9.22736 5.78804C9.8181 5.22542 10.15 4.46235 10.15 3.66669Z" fill="#5B5A5F"/>
</svg>
