<svg width="14" height="13" viewBox="0 0 14 13" fill="none" xmlns="http://www.w3.org/2000/svg">
<path fill-rule="evenodd" clip-rule="evenodd" d="M2.1 5.28115C2.1 5.82999 2.18886 6.35625 2.35178 6.84381C1.01845 7.07726 0 8.33547 0 9.85257C0 11.5357 1.2536 12.9002 2.8 12.9002H9.8C12.1196 12.9002 14 10.8535 14 8.32876C14 5.97701 12.3684 4.04003 10.2701 3.78565C9.70095 1.99534 8.13841 0.709717 6.3 0.709717C3.9804 0.709717 2.1 2.75641 2.1 5.28115ZM7.525 4.74781C7.525 4.43222 7.28994 4.17638 6.99997 4.17638C6.71002 4.17638 6.47497 4.43222 6.47497 4.74781V8.85394L5.27123 7.54377C5.06621 7.32061 4.73379 7.32061 4.52877 7.54377C4.32375 7.76694 4.32375 8.12869 4.52877 8.35185L6.62877 10.6376C6.83379 10.8607 7.16618 10.8607 7.37121 10.6376L9.47121 8.35185C9.67624 8.12869 9.67624 7.76694 9.47121 7.54377C9.26618 7.32061 8.93382 7.32061 8.72879 7.54377L7.525 8.85402V4.74781Z" fill="#5B5A5F"/>
</svg>
